<?xml version="1.0" encoding="UTF-8"?>
<svg id="Layer_2" data-name="Layer 2" xmlns="http://www.w3.org/2000/svg" viewBox="0 0 800 800">
  <defs>
    <style>
      .cls-1 {
        fill: #368f49;
      }

      .cls-2 {
        fill: #fff;
      }
    </style>
  </defs>
  <rect class="cls-1" width="800" height="800"/>
  <path class="cls-2" d="M584.72,207.47c-38.5,105.92-67.95,226.85-91.08,337.44-2.88,13.77-8.58,36.23-9.73,51.17-3.2,17.73-5.21,36.86-4.39,53.71.29,5.89-4.02,11.07-9.86,11.9-5.74.82-11.23,1.06-16.32.53-42.58-4.45-31.81-57.67-26.75-86.48,13.66-77.96,35.5-158.59,58.4-234.31,6.64-21.98,15.05-44.23,21.17-66.13.26-.94,1.12-2.95,0-3.53-2.56,1.29-4.41,5.63-5.88,8.23-33.76,59.46-68.34,125.84-95.28,188.65-8.47,19.77-15.08,42.22-24.39,61.13-3.1,6.32-6.25,12.01-14.04,13.3-14.8,2.47-36.98-5.1-44.36-18.73-10.42-19.24-3.34-71.35-.85-94.34,4.51-41.73,11.67-83.33,15.02-125.15l-.91-7.53c-23.61,67.04-49.15,133.63-69.23,201.89-6.61,22.52-12.89,45.39-16.98,68.54-2.57,14.57.1,33.25-17.02,39.41-25.43,9.14-45.33-8.76-45.04-34.29l-.82-1.38v-.88c9.58-62.32,36.94-123.15,60.21-181.83,25.28-63.74,51.61-132.03,81.67-193.44,3.23-6.6,8.66-19.73,15.55-22.37,12.01-4.62,37.26,1.81,48.23,8.32,12.35,7.33,13.04,12.7,12.23,26.55-1.51,25.9-6.59,55.7-9.8,81.87-5.67,46.08-13.6,92.15-16.64,138.53-.13,2.01-.35,4.76.43,6.6,35.65-70,68.1-141.64,106.16-210.4,10.17-18.39,21.09-38.1,32.43-55.75,3.91-6.09,8.66-15.88,16.65-16.85,15.13-1.81,42.85,3.19,54.7,13.27,3.98,3.38,8.17,8.89,7.51,14.43-.72,5.98-8.48,21.03-10.97,27.9Z"/>
</svg>