<?xml version="1.0" encoding="UTF-8"?>
<svg id="Layer_2" data-name="Layer 2" xmlns="http://www.w3.org/2000/svg" viewBox="0 0 800 800">
  <defs>
    <style>
      .cls-1 {
        fill: #fff;
      }
    </style>
  </defs>
  <rect width="800" height="800"/>
  <path class="cls-1" d="M662.39,618.48l-118,84.15c-5.08,1.51-7.94-3.79-6.47-8.32l16.95-43.31-.89-2.2c-26.43,1.96-47.47,4.31-58.92,5.82-12.05,1.59-28.94,6.48-43.95,5.82-44.51-1.96-33.09-60.01-27.84-89.99,14.21-81.13,36.96-165.02,60.79-243.83,6.9-22.87,15.65-46.01,22.01-68.82.28-.98,1.16-3.06,0-3.67-2.66,1.35-4.57,5.86-6.12,8.57-35.14,61.89-71.12,130.97-99.14,196.33-8.83,20.57-15.71,43.92-25.39,63.62-3.23,6.56-6.5,12.48-14.61,13.83-15.4,2.59-38.49-5.29-46.17-19.47-10.83-20.02-3.47-74.25-.89-98.18,4.7-43.44,12.15-86.73,15.63-130.25l-.93-7.83c-24.58,69.77-51.15,139.08-72.05,210.12-6.9,23.43-13.43,47.24-17.68,71.33-2.68,15.16.12,34.59-17.71,41-26.46,9.51-47.16-9.12-46.87-35.67l-.86-1.45v-.92c9.97-64.86,38.44-128.14,62.66-189.22,26.31-66.33,53.71-137.4,84.99-201.31,3.37-6.87,9.03-20.53,16.18-23.27,12.5-4.8,38.79,1.87,50.19,8.64,12.86,7.63,13.57,13.23,12.73,27.63-1.56,26.95-6.85,57.97-10.2,85.2-5.89,47.96-14.13,95.9-17.32,144.17-.14,2.08-.35,4.96.44,6.87,37.11-72.86,70.89-147.4,110.47-218.96,10.6-19.15,21.97-39.66,33.74-58.02,4.07-6.35,9.01-16.54,17.35-17.53,15.73-1.88,44.57,3.3,56.92,13.8,4.13,3.53,8.49,9.25,7.8,15.04-.75,6.23-8.83,21.89-11.41,29.02-40.06,110.23-70.72,236.09-94.78,351.15-2.98,14.27-8.89,37.57-10.1,53.1v.02c-1.48,8.18-2.72,16.64-3.56,25.07,12.86-2.95,50.01-7.48,72.9-4.31l-17.9-38.07c2.46-18.89,13.35-4.05,20.39,1.12,25.93,19.09,58.76,28.82,90.71,31.28,9.67.75,22.07-3.27,16.89,11.93Z"/>
</svg>